<svg version="1.1" xmlns="http://www.w3.org/2000/svg" xmlns:xlink="http://www.w3.org/1999/xlink" x="0px" y="0px"
	 width="1041.15px" height="1042.09px" viewBox="0 0 1041.15 1042.09" style="enable-background:new 0 0 1041.15 1042.09;"
	 xml:space="preserve">
<style type="text/css">
	.st0{fill:#FFDD0F;}
	.st1{fill:#DC0A13;}
	.st2{fill:#FFFFFF;}
	.st3{fill:#DF0913;}
	.st4{fill:#1D71B8;}
	.st5{fill:#878787;}
	.st6{fill:#C6C6C6;}
	.st7{fill:#9D9D9C;}
	.st8{opacity:0.07;}
	.st9{opacity:0.09;}
	.st10{opacity:0.19;fill:#FFFFFF;}
	.st11{opacity:0.19;fill:#1D1D1B;}
	.st12{fill:#DADADA;}
	.st13{fill:#B2B2B2;}
	.st14{fill:#FCFCFC;}
	.st15{fill:#92B7E3;}
	.st16{fill:#94C120;}
</style>
<defs>
</defs>
<g id="Fondo_1_">
	<circle cx="527.57" cy="528.51" r="513.58"/>
	<path class="st0" d="M527.57,51.19c-263.61,0-477.32,213.7-477.32,477.32s213.7,477.32,477.32,477.32s477.32-213.7,477.32-477.32
		S791.18,51.19,527.57,51.19z M527.57,983.95c-251.54,0-455.45-203.91-455.45-455.45S276.03,73.06,527.57,73.06
		s455.45,203.91,455.45,455.45S779.11,983.95,527.57,983.95z"/>
	<path class="st1" d="M527.57,33.19c-273.55,0-495.31,221.76-495.31,495.31s221.76,495.31,495.31,495.31
		s495.31-221.76,495.31-495.31S801.12,33.19,527.57,33.19z M527.57,1005.82c-263.61,0-477.32-213.7-477.32-477.32
		S263.96,51.19,527.57,51.19s477.32,213.7,477.32,477.32S791.18,1005.82,527.57,1005.82z"/>
	<circle cx="527.57" cy="528.51" r="455.45"/>
	<g>
		<g>
			<path d="M863.29,113.57c-0.02-0.1-0.03-0.2-0.05-0.3c-0.6-3.61,0.31-7.34,2.52-10.26c8.8-11.64,13.74-26.35,12.88-42.26
				c-1.78-33.09-28.26-59.26-61.37-60.7c-26.7-1.16-49.99,13.98-60.78,36.29c-1.88,3.88-5.33,6.84-9.51,7.88
				c-0.05,0.01-0.11,0.03-0.16,0.04c-3.89,0.94-7.97,0.12-11.37-1.99c-7.14-4.42-15.65-6.83-24.76-6.42
				c-22.41,0.99-40.6,19.29-41.45,41.71c-0.94,24.77,18.86,45.15,43.42,45.15c1.22,0,2.43-0.06,3.63-0.16
				c4.17,17.57,18.33,72.18,33.13,73.09c-3.19,10.42-4.8,21.53-4.55,33.05c1.24,56.17,47.28,101.75,103.47,102.43
				c58.47,0.71,106.09-46.48,106.09-104.78c0-49.6-34.46-91.14-80.75-102.01C868.41,123.09,864.22,118.92,863.29,113.57z"/>
			<circle class="st2" cx="849.64" cy="226.33" r="88.06"/>
			<circle class="st0" cx="814.42" cy="64.32" r="52.84"/>
			<circle class="st3" cx="712.66" cy="79.26" r="31.31"/>
		</g>
		<g>
			<path d="M332.5,843.2c-1.95-57.13-50.03-102.57-107.18-101.21c-11.52,0.28-22.53,2.39-32.79,6.05
				c-1.59-14.75-56.78-26.39-74.53-29.76c0.04-1.2,0.05-2.41,0-3.64c-1.17-25.59-24.25-45-50.3-40.92
				c-18.52,2.9-35.2,21.12-36.46,39.82c-0.39,5.8,0.35,11.66,2.24,17.17c1.7,4.95,5.11,9.49,5.38,14.84
				c0.4,8-3.76,15.57-10.34,19.99c-18.7,12.55-30.34,34.6-28.28,58.91c2.77,32.77,30.32,58.44,63.2,58.84
				c11.86,0.14,22.92-2.89,32.44-8.27c5.85-3.3,12.83-4.27,19.31-2.5c4.16,1.14,7.97,3.36,10.86,6.58
				c3.28,3.66,4.38,8.43,6.65,12.66c6.44,12.01,14.73,23.61,24.88,32.77c8.37,7.56,17.95,13.76,28.29,18.28
				c10.58,4.63,21.93,7.48,33.44,8.4c4.41,0.35,8.85,0.43,13.27,0.22C289.97,948.81,334.46,900.48,332.5,843.2z"/>
			<circle class="st2" cx="225.17" cy="850.93" r="88.21"/>
			<circle class="st0" cx="64.04" cy="819.07" r="54.4"/>
			<circle class="st3" cx="74.59" cy="717.4" r="30.02"/>
		</g>
	</g>
</g>
<g id="Cansat_2_">
	<g>
		<g>
			<polygon class="st4" points="260.37,512.52 168.56,478.53 135.91,561.99 224.5,603.28 			"/>
			<path class="st5" d="M269.03,550.36L253,545.12l14.06-35.58l-101.45-37.56l-36.24,92.63l97.89,45.63l13.11-33.16l12.44,10.01
				L269.03,550.36z M168.56,478.53l22.33,8.27l-8.87,22.88l-22.25-8.67L168.56,478.53z M157.89,505.79l22.27,8.67l-11.49,29.65
				l-22.2-9.11L157.89,505.79z M135.91,561.99l8.69-22.2l22.22,9.11l-9.03,23.28L135.91,561.99z M195.69,488.58l28.6,10.59
				l-8.88,23.53l-28.63-11.15L195.69,488.58z M184.94,516.33l28.67,11.17l-11.46,30.35l-28.74-11.79L184.94,516.33z M162.44,574.35
				l9.11-23.51l28.78,11.8l-9.43,24.97L162.44,574.35z M229.11,500.95l31.26,11.57l-9.48,23.99l-30.69-11.96L229.11,500.95z
				 M218.39,529.36L249,541.29l-12.17,30.79L206.9,559.8L218.39,529.36z M195.57,589.8l9.51-25.2l29.86,12.25l-10.45,26.43
				L195.57,589.8z"/>
		</g>
		<g>
			<polygon class="st4" points="415.4,584.23 372.26,671.79 468.38,712.07 508.29,631.84 			"/>
			<path class="st5" d="M413.1,577.29l-16.92,34.33l-14.82-8.4l-16.22,36.72l15.38,3.46l-15.28,31.01l105.58,44.24l44.3-89.08
				L413.1,577.29z M404.54,685.32l-32.28-13.53l12.03-24.4l31.88,15.11L404.54,685.32z M418.49,657.92l-31.94-15.13l14.65-29.74
				l32.04,15.88L418.49,657.92z M403.47,608.44l11.93-24.21l32.2,16.5l-12.02,23.62L403.47,608.44z M438.24,699.44l-28.95-12.13
				l11.51-22.62l28.11,13.32L438.24,699.44z M451.2,673.42l-28.07-13.3l14.72-28.91l27.57,13.67L451.2,673.42z M467.7,640.28
				l-27.52-13.65l11.99-23.56l27.13,13.91L467.7,640.28z M468.38,712.07l-25.4-10.64l10.56-21.22l24.83,11.77L468.38,712.07z
				 M480.66,687.38l-24.83-11.77l14.17-28.46l24.6,12.2L480.66,687.38z M496.89,654.75l-24.6-12.19l11.57-23.24l24.42,12.52
				L496.89,654.75z"/>
		</g>
		<g>
			<path class="st6" d="M408.62,512.21c0.69-0.45,5.09-3.58,1.61-6.95c-3.65-3.54-17.7-14.12-43.99-25.08
				c-19.69-9.05-34.24-12.92-41.96-14.3c-0.61-0.13-0.91-0.18-0.91-0.18l-0.01,0.02c-1.62-0.27-2.89-0.41-3.78-0.47
				c-4.74-0.29-4.2,4.86-4.06,5.83c11,2.26,28.12,6.72,47.16,15.13C383.8,495.54,399.32,505.51,408.62,512.21z"/>
			<path class="st7" d="M408.86,541.28c1.11-2.74,1.29-5.77,0.53-8.63c-3.92-14.73-0.85-20.38-0.85-20.38s0.03-0.02,0.09-0.06
				c-9.3-6.71-24.82-16.67-45.92-25.99c-19.04-8.41-36.16-12.87-47.16-15.13c0.01,0.1,0.03,0.16,0.03,0.16s-2.11,6.07-15.64,13.1
				c-2.63,1.36-4.75,3.53-6.02,6.2l-17.07,38.65l-62.15,139.38c0,0-0.68,2.89,2.75,6.39c3.43,3.51,7.33,9.1,5.97,12.64
				c-1.36,3.53,18.97,14.3,18.97,14.3s14.67,7.06,24.31,11.15c9.24,4.08,20.68,8.69,20.68,8.69s21.65,7.77,23.35,4.39
				c1.69-3.39,8.46-4.28,13.36-4.1c4.9,0.17,6.58-2.27,6.58-2.27l61.16-139.82L408.86,541.28z"/>
		</g>
	</g>
	<g>
		<path class="st8" d="M427.69,685.29c-1.32,4.51-6.29,3.6-6.29,3.6s-7.55-3.37-10.15-4.25c-2.7-0.92-5.33-2.22-7.96-3.34
			l-4.74-1.99l-32.28-13.53l12.03-24.4l2.26-4.6l14.66-29.74l2.27-4.6l11.93-24.21h0c4.11,2.11,6.02,6.91,4.54,11.28
			c-0.66,1.95-1.21,4.43-2.17,7.54c-5.73,18.49-20.44,49.86-16.17,60.21C399.89,667.66,430.85,674.52,427.69,685.29z"/>
		<g class="st9">
			<path d="M177.47,511.58l-11.71-4.56l8.79-22.48l12.38,4.58C183.75,495.37,180.31,503.05,177.47,511.58z"/>
			<path d="M171.46,548.8l-19.01-7.79l11.43-29.22l12.06,4.7C173.02,526.57,171.09,537.62,171.46,548.8z"/>
			<path d="M172.12,556.68l-8.33,21.49l-21.88-10.2l8.69-22.2l21.25,8.71C171.93,555.23,172.02,555.96,172.12,556.68z"/>
			<path d="M184.75,587.95l-16.31-7.6l5.56-14.35C176.09,573.55,179.54,580.95,184.75,587.95z"/>
		</g>
	</g>
	<path class="st10" d="M349.28,677.12C349.28,677.12,349.28,677.12,349.28,677.12l42.51-97.19l17.07-38.65
		c1.11-2.74,1.29-5.77,0.53-8.63c-3.92-14.73-0.85-20.38-0.85-20.38s0.03-0.02,0.09-0.06c0.69-0.45,5.09-3.58,1.61-6.95
		c-1.3-1.26-3.92-3.41-7.92-6.15c-0.05,2.65-0.12,5.55-0.23,8.57c-0.42,11.72-1.39,25.32-3.56,33.71
		c-4.39,16.98-31.73,84.73-56.75,139.62c-0.14,0.32-0.29,0.64-0.44,0.96c-0.06,0.13-0.12,0.26-0.17,0.38
		c-7.12,15.34-18.97,33.04-23.87,40.14c2.24-0.43,4.67-0.55,6.77-0.48c4.9,0.17,6.58-2.27,6.58-2.27L349.28,677.12z"/>
	<path class="st11" d="M246.03,650.49c-0.28-6.42-0.27-12.79,0.15-18.86c0.37-5.38,1.06-10.52,2.16-15.23
		c0.49-1.84,1.05-3.81,1.67-5.89c0.64-1.89,1.13-3.5,1.48-4.85c10.64-33.77,33.47-89.24,40.3-110.5l-62.27,140.12l-14.84,33.29
		c0,0-0.68,2.88,2.75,6.39c3.43,3.51,7.33,9.1,5.96,12.64c-1.36,3.54,18.97,14.3,18.97,14.3s5.27,2.54,11.56,5.45
		C251.27,695.18,246.97,672.58,246.03,650.49z"/>
</g>
<g id="CubeSat_1_">
	<polygon class="st5" points="542.41,320.04 510.45,464.1 397.4,360.49 429.36,216.43 	"/>
	<polygon class="st12" points="542.41,320.04 510.45,464.1 656.71,418.01 688.66,273.95 	"/>
	<path class="st4" d="M528.27,445.09l117.01-36.88l8.09-36.45c1.7-7.66-5.53-14.28-13.01-11.92l-94.57,29.8
		c-3.47,1.09-6.09,3.96-6.88,7.51L528.27,445.09z"/>
	<path class="st4" d="M553.84,329.84l-8.14,36.7c-1.68,7.58,5.47,14.14,12.88,11.8l94.79-29.88c3.44-1.08,6.03-3.92,6.81-7.43
		l10.67-48.07L553.84,329.84z"/>
	<path class="st4" d="M527.9,324.09l-90.44-82.89l-10.65,47.98c-0.83,3.73,0.4,7.62,3.23,10.2l72.31,65.99
		c6.06,5.53,15.84,2.44,17.62-5.57L527.9,324.09z"/>
	<path class="st4" d="M419.98,320.06l-8.07,36.38l90.44,82.89L513,391.32c0.78-3.53-0.38-7.21-3.05-9.65l-73.29-66.88
		C430.91,309.55,421.66,312.48,419.98,320.06z"/>
	<polygon class="st13" points="575.62,170.33 429.36,216.43 542.41,320.04 688.66,273.95 	"/>
	<path class="st4" d="M572.29,185.31l-117.01,36.88l38.25,35.06c2.67,2.45,6.44,3.28,9.89,2.19l94.63-29.92
		c7.43-2.35,9.53-11.85,3.79-17.12L572.29,185.31z"/>
	<path class="st4" d="M614.7,231.03l-94.74,29.86c-7.42,2.34-9.53,11.84-3.79,17.1l29.56,27.09l117.01-36.88l-38.17-34.98
		C621.9,230.78,618.14,229.94,614.7,231.03z"/>
</g>
<g id="Estrellas_1_">
	<circle class="st14" cx="662.73" cy="541.43" r="9.69"/>
	<circle class="st14" cx="404.13" cy="171.38" r="6.72"/>
	<circle class="st14" cx="191.81" cy="406.52" r="6.07"/>
	<circle class="st14" cx="362.41" cy="737.84" r="6.53"/>
	<circle class="st14" cx="692.2" cy="731.31" r="7.55"/>
	<circle class="st14" cx="885.46" cy="676.93" r="3.74"/>
	<circle class="st2" cx="839.72" cy="337.49" r="6.36"/>
</g>
<g id="SpaceSat_1_">
	<path class="st2" d="M422.56,881.58v37.51h60.66v12.43h-50.18c-5.79,0-10.48,4.69-10.48,10.48l0,0h73.6v-36.38h-59.8v-12.33h48.09
		c6.47,0,11.71-5.24,11.71-11.71l0,0H422.56z"/>
	<path class="st2" d="M506.53,942l28.36-60.42h15.02L578.67,942h-14.18l-21.17-44.14c-0.28-0.58-1.12-0.57-1.38,0.02L522.56,942
		H506.53z"/>
	<path class="st2" d="M589.15,878.56v13.56h60.42c7.49,0,13.56-6.07,13.56-13.56l0,0H589.15z"/>
	<path class="st2" d="M628.83,896.19h-13.56v36.96c0,4.58,6.07,8.3,13.56,8.3l0,0V896.19z"/>
	<path class="st2" d="M338.6,807.04v37.51h60.66v12.43h-50.18c-5.79,0-10.48,4.69-10.48,10.48l0,0h73.6v-36.38h-59.8v-12.33h48.09
		c6.47,0,11.71-5.24,11.71-11.71l0,0H338.6z"/>
	<path class="st2" d="M423.3,831.71v35.76h12.95v-22.91h48.14c6.1,0,11.05-4.95,11.05-11.05v-26.46H423.3v12.95h59.19v11.1
		L423.3,831.71z"/>
	<path class="st2" d="M506.53,867.46l28.36-60.42h15.02l28.75,60.42h-14.18l-21.17-44.14c-0.28-0.58-1.12-0.57-1.38,0.02
		l-19.37,44.12H506.53z"/>
	<path class="st2" d="M589.15,831.71h14.8v22.81h59.19l0,0c0,7.15-5.8,12.95-12.95,12.95h-46.55c-8,0-14.49-6.49-14.49-14.49V831.71
		z"/>
	<path class="st2" d="M589.15,807.04v13.56h60.42c7.49,0,13.56-6.07,13.56-13.56l0,0H589.15z"/>
	<path class="st2" d="M674.23,807.04L674.23,807.04c0,7.49,6.07,13.56,13.56,13.56h46.86c7.49,0,13.56-6.07,13.56-13.56l0,0H674.23z
		"/>
	<path class="st2" d="M748.21,830.47L748.21,830.47h-73.98v1.23v12.33v11.1c0,6.81,5.52,12.33,12.33,12.33h48.71
		c7.15,0,12.95-5.8,12.95-12.95l0,0h-59.19v-10.48h45.62C742.14,844.04,748.21,837.96,748.21,830.47z"/>
</g>
<g id="Tierra_1_">
	<path class="st15" d="M957.95,677.87c0.54-1.55,1.07-3.11,1.59-4.66c0.28-0.83,0.56-1.66,0.83-2.49c0.61-1.86,1.21-3.73,1.8-5.6
		c0.15-0.49,0.31-0.98,0.47-1.47c0.73-2.34,1.43-4.69,2.12-7.04c0.2-0.69,0.39-1.37,0.59-2.06c0.5-1.74,0.99-3.48,1.47-5.22
		c0.22-0.8,0.44-1.6,0.65-2.41c0.48-1.78,0.94-3.56,1.4-5.34c0.17-0.66,0.34-1.31,0.5-1.97c0.61-2.44,1.21-4.89,1.78-7.35
		c0.06-0.25,0.11-0.5,0.17-0.74c0.51-2.21,1.01-4.43,1.48-6.65c0.15-0.7,0.29-1.39,0.44-2.09c0.39-1.86,0.77-3.73,1.14-5.6
		c0.14-0.69,0.27-1.37,0.4-2.06c0.44-2.28,0.86-4.57,1.27-6.86c0.04-0.21,0.08-0.41,0.11-0.62c0.45-2.57,0.88-5.15,1.28-7.74
		c0.08-0.48,0.15-0.97,0.22-1.45c0.32-2.08,0.63-4.16,0.92-6.25c0.09-0.66,0.18-1.32,0.27-1.98c0.28-2.09,0.55-4.19,0.81-6.29
		c0.06-0.48,0.12-0.97,0.18-1.45c0.62-5.22,1.14-10.46,1.58-15.73c0.05-0.58,0.09-1.16,0.14-1.74c0.17-2.1,0.32-4.21,0.46-6.32
		c0.02-0.36,0.05-0.71,0.08-1.07c0,0-0.01,0-0.01,0c0.61-9.62,0.93-19.33,0.93-29.1c0-33.95-3.73-67.02-10.78-98.85
		c0,0,0.01,0,0.01,0c-0.27-1.21-0.56-2.42-0.83-3.62c-0.23-1-0.45-2-0.69-3c-0.42-1.76-0.85-3.52-1.29-5.27
		c-0.18-0.71-0.35-1.43-0.53-2.14c-0.62-2.45-1.27-4.89-1.93-7.32c-0.2-0.72-0.41-1.44-0.61-2.16c-0.48-1.73-0.96-3.45-1.46-5.17
		c-0.05-0.17-0.1-0.35-0.15-0.52c0,0,0,0-0.01,0c-2.61-8.91-5.47-17.71-8.59-26.38c-88.39,76.25-144.34,189.08-144.34,314.97
		c0,58.69,12.16,114.54,34.1,165.17c6.79-6.64,13.37-13.5,19.74-20.55c0,0,0,0,0,0c0.04-0.04,0.08-0.09,0.12-0.13
		c0.39-0.43,0.78-0.87,1.17-1.31c1.76-1.97,3.51-3.95,5.24-5.95c0.35-0.41,0.7-0.82,1.05-1.23c1.7-1.98,3.38-3.97,5.04-5.97
		c0.33-0.4,0.66-0.8,0.99-1.2c1.71-2.07,3.39-4.16,5.06-6.27c0.32-0.4,0.64-0.79,0.95-1.19c1.69-2.14,3.36-4.31,5.02-6.49
		c0.34-0.45,0.68-0.89,1.02-1.34c1.63-2.16,3.24-4.34,4.83-6.52c0.34-0.47,0.69-0.94,1.03-1.42c1.58-2.19,3.14-4.39,4.68-6.61
		c0.33-0.48,0.67-0.96,1-1.44c1.54-2.23,3.05-4.47,4.55-6.73c0.32-0.48,0.63-0.95,0.94-1.43c1.5-2.28,2.98-4.58,4.44-6.89
		c0.29-0.46,0.57-0.91,0.86-1.37c1.47-2.35,2.93-4.71,4.36-7.09c0.25-0.41,0.5-0.83,0.74-1.24c1.46-2.43,2.89-4.88,4.3-7.34
		c0.2-0.35,0.4-0.7,0.6-1.05c1.44-2.54,2.87-5.09,4.26-7.65c0.14-0.26,0.28-0.53,0.42-0.79c1.44-2.67,2.86-5.35,4.26-8.04
		c0.07-0.13,0.13-0.26,0.2-0.39c1.44-2.79,2.85-5.6,4.23-8.43c0.01-0.03,0.03-0.05,0.04-0.08c0,0,0,0,0,0
		c6.5-13.31,12.36-26.98,17.56-40.98c0,0,0,0,0,0.01c0.17-0.45,0.33-0.91,0.49-1.36c0.65-1.77,1.3-3.55,1.93-5.33
		C957.36,679.55,957.65,678.71,957.95,677.87z"/>
	<path class="st16" d="M923.67,753.45c1.44-2.54,2.87-5.09,4.26-7.65c0.14-0.26,0.28-0.53,0.42-0.79c1.44-2.67,2.86-5.35,4.26-8.04
		c0.07-0.13,0.13-0.26,0.2-0.39c1.42-2.75,5.62-7.12,4.95-10.47c-0.75-3.77-8.03-7.31-10.98-9.54c-1.38-1.05-2.81-2.14-3.67-3.65
		c-1.37-2.38-1.1-5.37-0.38-8.03c1.29-4.8,2.12-11.71,6.36-14.99c1.39-1.07,3.86-0.64,4.45-2.75c1.56-5.54-0.93-10.86-3.35-15.71
		c-0.59-1.18-1.37-2.27-2.23-3.27c-4.97-5.79-10.46,3.23-13.48,6.36c-8.36,8.64-15.25-9.09-16.42-15
		c-0.89-4.48-0.49-9.38,1.97-13.23c3.72-5.82,10.81-7.97,15.39-12.91c3.45-3.73,6.09-14.02,12.86-11.17
		c1.72,0.72,2.86,2.4,3.56,4.13c2.61,6.47,0.26,14.38,3.73,20.43c3.33,5.81,10.7,7.73,17.34,8.65c1.1,0.15,2.37,0.24,3.17-0.54
		c0.92-0.9,0.67-2.42,0.24-3.62c-2.62-7.3-9.81-13.51-8.53-21.15c1.98-11.84,25.53-7.75,25.8-9.07c0.27-1.29,0.53-2.58,0.79-3.88
		c0.14-0.69,0.27-1.37,0.4-2.06c0.44-2.28,0.86-4.57,1.27-6.86c0.04-0.21,0.08-0.41,0.11-0.62c0.45-2.57,0.88-5.15,1.28-7.74
		c0.08-0.48,0.15-0.97,0.22-1.45c0.32-2.08,0.63-4.16,0.92-6.25c0.09-0.66,0.18-1.32,0.27-1.98c0.28-2.09,0.55-4.19,0.81-6.29
		c0.06-0.48,0.12-0.97,0.18-1.45c0.62-5.22,1.14-10.46,1.58-15.73c0.05-0.58,0.09-1.16,0.14-1.74c0.17-2.1,0.32-4.21,0.46-6.32
		c0.02-0.36,0.05-0.71,0.07-1.07c0.61-9.62,0.93-19.33,0.93-29.1c0-33.95-3.73-67.02-10.77-98.86c-0.27-1.21-0.56-2.42-0.83-3.62
		c-0.23-1-0.45-2-0.69-3c-0.42-1.76-0.85-3.52-1.29-5.27c-0.18-0.71-0.35-1.43-0.53-2.14c-0.51-2.01-1.05-4.02-1.59-6.02
		c-11.25,5.24-19.33,15.71-28.38,23.83c-9.13,8.19-20.16,14.53-28.17,23.89c-7.59,8.87-12.69,19.71-15.99,30.85
		c-3.44,11.61-5.26,24.05-11.99,34.11c-4.67,6.98-11.54,12.5-15.19,20.17c-4.05,8.52-4.55,18.46-10.28,26.28
		c-11.14,15.2-18.67,33.04-21.79,51.62c-1.42,8.43-1.85,17.48,1.94,25.13c0.85,1.71,2.13,3.48,4.02,3.74
		c4.12,0.57,5.23-5.46,4.9-9.6c-0.75-9.51,0.25-19.16,2.93-28.32c1.51-5.16,11.93-21.18,16.19-9.69c1.9,5.13,1.32,10.86,0.09,16.06
		c-2.67,11.31-8.17,21.02-9.14,32.9c-0.99,12.14,0.97,24.55,5.9,35.71c2.01,4.55,4.57,9,8.43,12.13c5.07,4.13,11.56,4.13,17.68,2.96
		c4.83-0.93,11.96-4.79,16.19-0.35c3.67,3.85,1.44,11.08,2.73,15.86c1.53,5.7,12.22,19.2,7.44,24.88c-0.58,0.69-1.38,1.15-2.16,1.59
		c-15.31,8.71-30.35,18.37-39.21,34.16c-2.53,4.51-5.14,12.92-4.78,18.4c0.57,8.62,6.93,16.06,8.23,24.76
		c2.47-2.93,4.75-6.37,7.46-9.08c0.32-0.4,0.64-0.79,0.95-1.19c1.69-2.14,3.36-4.31,5.02-6.49c0.34-0.45,0.68-0.89,1.02-1.34
		c1.63-2.16,3.24-4.34,4.83-6.52c0.34-0.47,0.69-0.94,1.03-1.42c1.58-2.19,3.14-4.39,4.68-6.61c0.33-0.48,0.67-0.96,1-1.44
		c1.54-2.23,3.05-4.47,4.55-6.73c0.32-0.48,0.63-0.95,0.94-1.43c1.5-2.28,2.98-4.58,4.44-6.89c0.29-0.46,0.57-0.91,0.86-1.37
		c1.47-2.35,2.93-4.71,4.36-7.09c0.25-0.41,0.5-0.83,0.74-1.24c1.46-2.43,2.89-4.88,4.3-7.34
		C923.27,754.15,923.47,753.8,923.67,753.45z"/>
</g>
</svg>